<svg width="620" height="125" viewBox="0 0 620 125" fill="none" xmlns="http://www.w3.org/2000/svg">
<path fill-rule="evenodd" clip-rule="evenodd" d="M0.419428 12.0084C1.22884 10.4863 2.95557 10.6169 4.40703 10.3789C7.78308 9.82525 11.1318 9.09146 14.5055 8.51467C26.498 6.46618 38.4718 4.29374 50.4666 2.25681C53.5408 1.73457 56.6463 1.32883 59.6915 0.637187C60.802 0.384328 62.4686 -0.370118 63.5532 0.220714C65.1408 1.08506 64.6497 3.00134 64.6254 4.52924C64.5863 7.00743 64.6176 9.48975 64.634 11.9679C64.641 13.0719 64.4752 14.4684 64.9969 15.4443C73.5907 15.0386 82.2744 15.2973 90.8768 15.308C92.7576 15.3105 94.6361 15.3411 96.5145 15.2667C97.7517 15.2179 98.92 15.1105 99.7506 16.2343C100.27 17.8316 99.8186 20.0471 99.81 21.7303C99.7873 25.9132 99.8006 30.0978 99.7967 34.2807C99.7834 48.0533 99.7607 61.8259 99.7779 75.5985C99.7834 80.145 99.7561 84.6907 99.7396 89.2372C99.7349 90.5817 100.226 93.2697 99.1828 94.2795C98.4946 94.9456 97.2129 94.8233 96.3557 94.8191C94.2701 94.8092 92.1844 94.8059 90.0987 94.8067C81.6058 94.8117 73.0182 94.4035 64.5378 94.8018C64.5762 97.7634 64.5652 100.731 64.584 103.695C64.5902 104.783 64.756 106.358 63.6987 107.001C62.6007 107.668 60.9671 107.099 59.8151 106.897C56.5493 106.323 53.2601 105.893 50.0037 105.258C38.1871 102.957 26.2086 101.376 14.3225 99.5425C11.1005 99.045 7.89256 98.4732 4.66275 98.0261C3.13544 97.8146 1.32267 97.8286 0.398307 96.2917C-0.401717 92.16 0.251295 87.254 0.248167 83.0364C0.24191 74.0846 0.241903 65.1329 0.262235 56.1812C0.284915 46.2659 0.270062 36.3499 0.283357 26.4347C0.288049 23.4276 0.322456 20.4197 0.299776 17.4127C0.2857 15.6443 0.0980109 13.752 0.419428 12.0084ZM6.94005 16.6888C6.66946 32.7363 6.96898 48.8127 6.94317 64.8643C6.93379 70.6479 6.9072 76.4306 6.89156 82.2142C6.88296 85.2088 6.57171 88.429 6.94709 91.3939C15.8013 93.2317 24.7908 94.3919 33.6982 95.914C38.9496 96.8114 44.215 97.5915 49.4758 98.4211C52.1425 98.8417 54.8679 99.5598 57.5409 99.8209C57.322 97.575 57.5409 95.2191 57.5433 92.9615C57.5496 88.2803 57.5581 83.5983 57.5581 78.9162C57.5581 63.0786 57.5714 47.2402 57.5613 31.4026C57.5566 23.6226 58.1533 15.5576 57.5316 7.80981C46.5776 9.18153 35.6807 11.3127 24.7963 13.2033C20.4458 13.9586 16.0383 14.6593 11.7285 15.6385C10.137 16.0005 8.47597 16.0947 6.94005 16.6888ZM64.6661 23.202C64.4463 25.6546 64.5816 28.1807 64.6113 30.6424C64.6215 31.5431 64.3619 32.9016 64.7279 33.7139C67.7144 33.4453 70.748 33.7692 73.7424 33.7188C73.8065 29.883 73.4874 25.9256 73.8128 22.1088C71.6919 22.0212 69.5413 22.1228 67.4181 22.1517C66.6063 22.1633 65.4434 21.9576 64.7232 22.3468C64.7099 23.0087 64.7411 22.7244 64.6661 23.202ZM64.5543 40.308C64.5449 44.1613 64.2782 48.1756 64.6622 52.0073C67.5408 51.7041 70.6838 51.7867 73.5688 51.99C73.4827 48.0996 73.8151 44.2067 73.7322 40.3163C70.8004 39.8783 67.5166 40.2659 64.5543 40.308ZM64.645 58.9329C64.5777 62.6192 64.4362 66.3534 64.7075 70.0323C66.3256 70.3554 68.1203 70.0579 69.7657 70.0876C70.9411 70.1099 72.3504 70.3793 73.4992 70.129C73.2841 66.4402 73.2912 62.43 73.507 58.7412C70.5853 58.9775 67.5745 58.8742 64.645 58.9329ZM64.652 77.7428C64.3916 81.073 64.3032 84.856 64.7443 88.1679C67.6566 88.3324 70.608 88.1985 73.5226 88.2175C73.0808 85.584 73.4804 82.4149 73.4945 79.7285C73.4999 78.7931 73.7236 77.5164 73.453 76.6298C70.5861 76.8504 67.5307 76.3397 64.7044 76.8562C64.6927 77.5387 64.7208 77.2445 64.652 77.7428ZM80.3264 23.202C80.3889 26.6933 79.9713 30.2862 80.4085 33.7519C84.5611 33.6155 88.8943 34.1684 93.0165 33.7362C92.7592 29.9201 93.3449 26.0074 93.0125 22.2096C88.9999 22.4261 84.834 21.7939 80.8503 22.3525C80.2888 22.9384 80.3944 22.6194 80.3264 23.202ZM80.2849 41.3881C80.098 44.6992 79.9752 48.45 80.3748 51.7454C81.1694 52.2883 82.8781 51.947 83.8424 51.947C86.8415 51.9495 89.8539 51.8669 92.8499 51.9718C93.1721 51.8834 92.9672 49.5647 92.9688 49.1573C92.9789 46.2065 92.9258 43.2515 93.0141 40.3014C90.0877 40.2733 87.1598 40.3031 84.2334 40.2998C83.0572 40.2981 81.3625 39.9643 80.3045 40.5204C80.331 41.1873 80.3529 40.8989 80.2849 41.3881ZM80.281 59.5683C79.9963 62.9795 80.1363 66.6112 80.3514 70.0232C84.3257 70.7214 88.9397 70.0438 92.9727 69.9984C92.6841 66.3319 92.9484 62.4663 93.0118 58.7858C91.8497 58.3693 90.1573 58.6924 88.9264 58.6941C86.2041 58.6957 83.4826 58.6842 80.7619 58.7213C80.2458 59.2717 80.3615 58.9659 80.281 59.5683ZM80.2427 77.3049C80.0222 80.7953 79.9119 84.7031 80.3874 88.1696C84.572 88.3423 88.7794 88.0093 92.9633 88.2109C92.7169 84.394 93.0556 80.5152 92.9336 76.6909C91.7292 76.3893 90.1737 76.6612 88.9264 76.6645C86.0923 76.6719 83.2613 76.6554 80.4319 76.8033C80.3694 76.971 80.306 77.138 80.2427 77.3049Z" fill="#FDFDFE"/>
<path fill-rule="evenodd" clip-rule="evenodd" d="M18.7682 68.3208C20.6787 65.6831 22.2248 62.6877 23.9085 59.8822C25.0268 58.0188 26.6871 56.0489 27.3987 53.9781C27.5285 52.7278 25.8917 50.7595 25.2739 49.7274C23.2359 46.3212 20.8116 42.944 19.0083 39.418C21.4122 39.7097 23.9648 39.475 26.3907 39.5204C28.1518 42.601 29.8082 45.8023 31.4059 48.9696C31.9932 48.6754 32.4061 46.9517 32.7385 46.3427C33.9647 44.1 35.0596 41.6102 36.5149 39.532C38.7946 39.2775 41.143 39.5634 43.4336 39.4965C43.6651 39.6246 43.0965 40.2369 43.0066 40.3625C42.4646 41.1153 42.0291 41.9606 41.5473 42.7572C39.9762 45.3519 38.5201 48.0276 36.988 50.6487C36.4187 51.6222 35.2191 52.979 35.1424 54.1293C37.0819 57.5933 39.0941 61.0598 41.1438 64.4593C41.7499 65.465 42.3708 66.4682 43.0246 67.4408C43.2443 67.7672 43.8207 68.2175 43.9169 68.5885C42.1401 68.5877 40.3375 68.5679 38.5576 68.4977C37.8749 68.4704 36.9951 68.5943 36.3593 68.3324C35.065 66.2732 33.9592 64.0701 32.7025 61.9811C32.2528 61.2325 31.8313 60.0186 31.0868 59.5914C29.687 61.7068 28.4388 63.9528 27.118 66.1261C26.6933 66.8251 26.264 68.0878 25.5296 68.4505C23.2594 68.4935 20.9274 68.7042 18.6782 68.6753C18.7079 68.5571 18.7377 68.439 18.7682 68.3208Z" fill="#FCFCFC"/>
<path fill-rule="evenodd" clip-rule="evenodd" d="M367.486 5.34521C369.338 5.11469 371.265 5.45775 373.124 5.4919C376.437 5.55244 379.751 5.50587 383.063 5.51907C384.515 5.5245 385.967 5.5408 387.419 5.54623C387.978 5.54779 388.771 5.34444 389.272 5.71078C392.44 14.3424 394.962 23.5367 397.735 32.4407C401.536 44.6457 405.447 56.7824 409.275 68.9673C409.465 69.0853 409.648 68.3107 409.725 68.084C410.021 67.2147 410.268 66.3136 410.538 65.4265C411.692 61.6334 412.916 57.8838 414.09 54.1024C417.44 43.3084 420.964 32.6293 424.342 21.8532C426.07 16.3394 427.665 10.6301 429.622 5.27692C431.239 4.8252 433.124 5.176 434.77 5.18765C438.285 5.21248 441.8 5.37316 445.312 5.39024C446.631 5.39645 447.948 5.37237 449.267 5.36539C449.8 5.36306 450.607 5.18454 451.073 5.57262C451.097 6.82223 451.207 8.30158 451.037 9.52092C448.142 9.61095 444.394 9.65285 442.896 13.9155C442.165 15.994 442.291 18.789 442.294 21.0483C442.301 24.8717 442.279 28.695 442.278 32.5191C442.275 43.9022 442.28 55.286 442.28 66.6699C442.28 69.9879 442.285 73.3068 442.288 76.6248C442.29 79.1077 442.226 81.7032 442.771 84.0945C443.855 88.8508 447.39 89.2435 450.389 89.2769C450.629 90.2859 450.474 91.6364 450.458 92.6912C449.751 93.004 448.699 92.6997 447.957 92.6966C446.194 92.6889 444.43 92.6958 442.666 92.6966C437.768 92.6982 432.87 92.7044 427.972 92.7502C425.71 92.7719 423.254 92.383 421.017 92.8386C421.055 91.5914 421.08 90.327 421.093 89.079C424.07 88.8143 427.429 88.975 429.13 84.7566C430.14 82.248 430.247 79.0154 430.28 76.1925C430.321 72.6292 430.3 69.0659 430.301 65.5018C430.305 54.4152 430.309 43.3271 430.386 32.2405C430.409 28.8394 430.426 25.4282 430.492 22.0286C430.523 20.4414 430.825 18.3691 430.595 16.8284C430.446 16.7438 430.197 17.6139 430.133 17.8048C429.81 18.7758 429.54 19.777 429.227 20.7534C427.759 25.3226 426.254 29.8678 424.784 34.437C420.39 48.0965 416.281 61.9315 411.914 75.6049C410.727 79.3243 409.538 83.0444 408.358 86.7684C407.719 88.7879 407.184 91.0434 406.401 92.9496C405.499 93.0987 404.318 92.8976 403.416 92.7292C399.987 79.8746 395.69 67.3707 391.707 54.8444C390.462 50.9295 388.978 47.013 387.944 42.9778C386.449 37.1458 384.313 31.5513 382.583 25.8473C382.02 23.9884 381.47 22.128 380.924 20.2606C380.74 19.628 380.571 18.976 380.381 18.3497C380.276 18.0012 380.142 17.0085 380.012 17.3399C379.845 17.7613 380.021 18.3078 380.007 18.7921C379.973 19.9982 380.017 21.2113 380.006 22.419C379.965 26.9463 380.002 31.4767 380.017 36.004C380.052 47.6099 380.072 59.2141 380.085 70.82C380.091 75.4854 379.452 81.9818 381.478 85.9969C383.036 89.0829 386.408 89.0829 388.809 89.1015C389.062 90.23 388.596 91.6216 388.835 92.7486C387.336 93.0241 385.637 92.6718 384.118 92.6718C380.321 92.6702 376.523 92.6671 372.726 92.7463C370.981 92.7828 369.147 92.5577 367.416 92.8976C367.485 91.7008 367.547 90.2975 367.451 89.1038C370.316 88.8011 373.474 88.9882 374.951 84.6937C375.706 82.4964 375.773 79.7387 375.813 77.3358C375.872 73.6521 375.847 69.9646 375.848 66.2802C375.852 54.3795 375.846 42.4779 375.852 30.5772C375.854 27.2785 375.896 23.9807 375.897 20.6828C375.898 18.494 375.997 16.1826 375.42 14.1119C374.215 9.78559 370.32 9.41847 367.517 9.50152C367.209 8.96364 367.318 6.00882 367.486 5.34521Z" fill="#FDFDFE"/>
<path fill-rule="evenodd" clip-rule="evenodd" d="M455.424 77.2305C455.692 75.5687 455.935 74.0304 456.484 72.4897C458.469 66.9146 462.59 64.1919 466.485 62.0349C471.314 59.3618 476.353 57.5123 481.171 54.857C481.269 52.8615 481.195 50.8195 481.191 48.8178C481.185 45.2328 481.301 41.4684 479.792 38.3948C477.006 32.7204 468.878 33.6176 466.159 38.9614C465.954 39.3619 465.773 39.8067 465.649 40.2716C464.835 43.3413 466.947 44.0662 467.875 46.2309C468.859 48.526 468.041 51.8153 466.805 53.5422C463.777 57.773 458.229 55.3266 457.195 49.5823C455.878 42.2663 459.813 36.6291 464.065 33.7371C469.132 30.2918 475.166 29.8952 480.637 31.2123C483.723 31.9559 486.791 33.5392 489.073 36.7207C492.211 41.0951 492.321 47.3742 492.332 53.207C492.345 59.6351 492.316 66.0632 492.314 72.492C492.312 75.8419 492.1 79.3843 492.447 82.7054C492.72 85.3195 494.546 87.679 496.465 86.4411C497.452 85.8038 498.218 84.1072 498.761 82.8296C499.159 82.8576 499.471 83.6097 499.672 84.0645C500.582 86.119 499.055 87.8964 497.991 89.184C494.029 93.983 486.01 96.6188 482.516 89.5053C481.858 88.1657 481.579 86.5148 481.316 84.9485C477.458 90.3048 473.002 93.8378 467.477 93.9457C461.801 94.0574 456.518 90.4965 455.509 81.9091C455.328 80.3645 455.268 78.7859 455.424 77.2305ZM466.813 74.1026C466.635 75.4174 466.624 76.8579 466.796 78.1758C467.008 79.8088 467.407 81.3153 468.12 82.6464C471.485 88.9403 479.047 85.5966 481.146 79.2112C481.453 77.7505 481.265 75.9475 481.269 74.4332C481.277 71.0693 481.277 67.7047 481.271 64.3409C481.269 63.1929 481.278 62.0458 481.264 60.8994C481.26 60.5649 481.4 59.9176 481.057 59.7973C480.762 59.6948 480.117 60.1093 479.839 60.2513C478.813 60.776 477.783 61.272 476.773 61.8595C472.556 64.3137 467.966 67.2049 466.813 74.1026Z" fill="#FDFDFE"/>
<path fill-rule="evenodd" clip-rule="evenodd" d="M501.95 108.643C502.284 107.421 502.532 106.197 503.047 105.083C504.75 101.403 507.399 99.6654 510.109 98.0347C508.73 96.8045 507.158 96.6454 505.91 94.9083C502.461 90.1094 503.122 82.5116 506.27 77.8027C507.315 76.238 508.569 74.8603 509.904 73.8428C510.349 73.5028 511.757 72.8671 511.995 72.2982C511.268 71.4483 510.272 70.9135 509.487 70.1281C508.007 68.6472 506.707 66.5974 505.838 64.3279C501.307 52.4915 505.618 37.5296 514.205 32.6903C517.902 30.6071 522.14 30.0506 526.058 31.0006C527.757 31.4128 529.407 32.5312 531.1 32.8129C531.818 31.7776 532.267 30.1872 532.829 28.9702C534.259 25.8703 536.089 22.532 538.537 21.0356C541.835 19.0215 546.77 19.9948 547.345 26.0542C547.426 26.9025 547.4 27.7889 547.252 28.6194C546.516 32.7276 543.021 34.5865 540.557 32.1594C539.253 30.8741 538.689 28.496 538.511 26.3484C536.545 27.8642 534.872 31.3375 533.819 34.0773C534.472 35.1546 535.574 35.9051 536.343 36.8691C538.043 38.9973 539.471 41.6277 540.359 44.605C542.734 52.5777 541.328 63.1124 536.632 68.759C533.893 72.053 530.65 73.6503 527.194 74.7004C524.6 75.489 521.873 75.6295 519.239 75.2181C517.955 75.0179 516.061 73.8668 514.811 74.4699C512.765 75.4579 510.134 78.214 510.524 81.6439C510.789 83.9685 512.137 84.875 513.601 85.2351C515.949 85.8118 518.392 85.7288 520.766 85.7451C522.309 85.7559 523.851 85.7769 525.394 85.7986C531.985 85.8925 540.012 85.2103 544.295 93.8435C544.941 95.1474 545.411 96.657 545.672 98.2101C546 100.167 546.089 102.183 546.011 104.19C545.905 106.931 545.318 109.515 544.338 111.873C542.259 116.88 538.323 120.36 534.528 122.137C527.604 125.377 520.312 125.541 513.149 124.226C508.337 123.342 502.159 120.203 501.81 112.073C501.761 110.931 501.79 109.765 501.95 108.643ZM508.516 109.438C508.373 115.167 511.664 118.287 515.138 119.62C520.67 121.741 528.073 121.224 533.303 117.787C536.114 115.941 538.756 112.814 538.787 108.043C538.824 102.37 534.745 101.162 531.576 100.611C527.528 99.9075 523.388 99.9898 519.315 99.8757C517.543 99.8253 515.36 99.1003 513.648 99.868C510.72 101.18 508.624 105.111 508.516 109.438ZM515.29 47.726C514.86 54.3008 514.84 63.3041 518.094 68.5703C520.326 72.1818 524.938 72.6498 527.365 69.1144C529.207 66.4313 529.953 62.4201 530.199 58.7846C530.655 52.0476 530.657 43.1645 527.457 37.6321C525.194 33.7187 520.653 33.3648 518.172 37.0539C516.289 39.8527 515.538 43.9531 515.29 47.726Z" fill="#FEFDFE"/>
<path fill-rule="evenodd" clip-rule="evenodd" d="M550.904 89.4082C552.789 88.6833 555.003 89.6232 556.28 86.9501C557.708 83.9604 557.211 79.3112 557.208 75.9055C557.201 68.0655 557.177 60.2256 557.187 52.3865C557.191 49.2578 557.745 44.8593 556.779 41.9612C555.717 38.7766 553.369 39.1166 551.348 38.4646C551.303 37.7544 551.272 37.0582 551.259 36.3457C552.273 35.4531 553.935 35.3778 555.106 34.968C558.064 33.9319 561.01 32.7816 563.993 31.8976C564.99 31.6019 565.987 31.3186 566.985 31.0291C567.268 30.9476 567.768 30.6464 568.01 30.901C568.424 45.37 568.039 59.9478 568.075 74.4285C568.085 78.6267 567.105 86.8764 570.678 88.7322C571.846 89.3391 573.293 89.3632 574.521 89.2763C574.471 90.4079 574.669 91.6226 574.526 92.7387C569.115 93.0484 563.623 92.7084 558.207 92.6269C556.506 92.6021 554.801 92.6696 553.1 92.7092C552.405 92.7263 551.576 92.9824 550.901 92.8124C550.9 91.6785 550.916 90.5422 550.904 89.4082Z" fill="#FDFDFE"/>
<path fill-rule="evenodd" clip-rule="evenodd" d="M551.866 13.4748C553.859 12.4767 555.921 11.8208 557.841 10.5254C558.516 10.0698 559.357 9.74616 559.887 8.97001C560.851 6.55462 561.342 2.72973 561.724 0C562.53 0.0838246 562.64 1.41648 562.866 2.41927C563.341 4.53507 563.723 7.68083 564.809 9.34878C565.389 10.2383 566.413 10.4408 567.186 10.8111C568.796 11.5818 570.665 12.0971 572.177 13.1752C572.283 14.1827 571.03 14.2921 570.5 14.535C568.732 15.3453 566.129 15.8925 564.737 17.7506C563.431 19.4939 563.195 23.7208 562.739 26.0834C562.641 26.5926 562.476 28.6191 562.124 28.7619C561.613 28.6191 561.394 26.5786 561.27 25.9134C560.928 24.0926 560.644 22.257 560.289 20.4392C560.105 19.4954 560.025 18.4057 559.493 17.7079C558.178 15.9857 555.502 15.3725 553.823 14.7586C553.296 14.5669 551.93 14.3348 551.866 13.4748Z" fill="#FDFDFE"/>
<path fill-rule="evenodd" clip-rule="evenodd" d="M579.248 61.3179C579.897 57.1841 580.203 53.1761 581.432 49.2324C583.857 41.4538 588.343 35.2547 593.973 32.3433C602.169 28.104 616.176 30.3253 617.209 45.756C617.544 50.7731 616.042 55.4968 612.58 57.2928C608.621 59.3473 603.934 55.0132 604.646 48.7373C604.937 46.176 606.173 44.5041 607.691 43.2716C608.339 42.7454 609.602 42.3526 609.951 41.3638C610.302 37.3379 607.313 35.337 604.974 34.8053C600.639 33.8204 596.585 37.1555 594.273 42.2548C592.924 45.2298 592.206 48.7272 591.784 52.1904C590.422 63.3631 591.67 79.1827 600.41 83.4088C601.669 84.0173 602.972 84.2975 604.297 84.3643C608.249 84.5637 612.144 82.3952 615.026 78.5462C616.011 77.2291 616.79 74.8346 617.873 73.8101C618.581 74.4838 619.273 75.1987 619.991 75.8452C620.064 76.2969 619.681 76.8177 619.521 77.167C618.872 78.5796 618.224 79.9736 617.469 81.2783C614.378 86.6244 610.182 90.738 605.536 92.777C598.885 95.6953 590.916 93.4499 585.697 86.893C580.88 80.8405 578.477 70.305 579.248 61.3179Z" fill="#FEFDFF"/>
<path fill-rule="evenodd" clip-rule="evenodd" d="M120.042 94.1288C120.461 90.5096 120.138 86.441 120.136 82.7752C120.132 76.4884 120.27 70.155 120.125 63.8751C121.037 63.865 122.265 63.5771 123.131 63.9403C123.535 75.1883 128.338 86.7553 136.06 90.3769C143.019 93.6421 153.544 92.3731 155.633 80.2628C155.872 78.8797 155.932 77.4244 155.901 76.0048C155.707 67.0061 149.825 62.6775 144.751 59.4976C136.503 54.33 126.574 50.7387 122.575 37.9275C122.006 36.1012 121.56 34.1702 121.326 32.1964C121.053 29.8835 120.908 27.5325 121.085 25.1908C121.312 22.1631 121.792 19.1819 122.745 16.4358C127.119 3.8249 137.538 0.828944 146.479 2.92456C148.792 3.46709 151.067 4.59097 153.179 6.03694C154.457 6.91166 156.248 8.29089 157.711 7.72274C159.089 7.18642 159.727 4.72524 160.009 2.96182C160.742 2.85859 161.573 3.06427 162.307 3.1675C162.737 12.864 162.372 22.7607 162.423 32.4774C161.662 32.4114 160.887 32.4502 160.125 32.4688C159.908 32.4743 159.562 32.6435 159.437 32.3873C158.93 21.6368 153.395 10.9259 146.089 8.00759C139.757 5.47811 131.263 8.11082 130.232 18.9521C129.164 30.1947 137.091 35.1613 143.233 38.3653C151.144 42.4929 160.837 47.208 164.398 59.198C165.06 61.4256 165.457 63.7758 165.683 66.1679C165.931 68.7967 165.912 71.5652 165.619 74.1855C165.254 77.4469 164.355 80.5267 163.175 83.355C158.106 95.5049 146.81 97.9785 137.779 96.4045C134.974 95.9155 132.222 94.8436 129.546 93.5831C128.236 92.9653 126.262 91.8547 124.899 92.6836C123.525 93.5195 123.44 95.3668 122.648 96.8158C121.756 96.6979 120.893 96.7048 120.002 96.7087C119.994 95.8464 120.008 94.9903 120.042 94.1288Z" fill="#FEFEFE"/>
<path fill-rule="evenodd" clip-rule="evenodd" d="M172.175 5.10476C176.141 3.84428 180.153 2.82286 184.126 1.58101C185.802 1.05711 187.609 0.748212 189.238 0C189.404 0.966311 189.221 2.21591 189.214 3.2187C189.195 5.67755 189.22 8.13952 189.223 10.5984C189.234 18.4895 189.254 26.3815 189.285 34.2726C189.296 36.9891 189.311 39.7057 189.279 42.4222C189.269 43.2977 189.515 44.9928 189.139 45.6502C189.087 45.8218 189.702 44.8686 189.809 44.6156C190.146 43.8162 190.595 43.1091 191.041 42.4323C192.508 40.2055 194.146 38.2217 196 36.6833C201.212 32.3586 209.441 30.8335 214.295 36.9713C217.796 41.4 218.218 48.3994 218.223 54.6303C218.229 62.0713 218.223 69.5123 218.227 76.9533C218.229 80.9567 217.524 86.7173 219.312 90.123C220.103 91.6296 221.532 92.1356 222.786 92.2373C223.27 92.2769 224.067 92.0549 224.498 92.3855C224.486 93.1718 224.393 94.0263 224.441 94.8064C224.453 95.0082 224.613 95.5585 224.486 95.7238C216.672 95.6733 208.875 95.4529 201.061 95.7525C201.101 94.6635 201.136 93.5482 201.137 92.4585C203.134 91.6684 205.223 92.5276 206.474 89.4703C207.866 86.0653 207.253 80.7215 207.253 76.9548C207.253 74.3679 207.244 71.781 207.241 69.1941C207.238 67.2529 207.238 65.3125 207.239 63.3721C207.244 56.6871 208.522 46.0461 203.009 42.9011C202.309 42.5022 201.517 42.2639 200.769 42.1537C196.899 41.584 193.65 44.004 191.24 48.1968C190.568 49.3657 189.623 51.067 189.388 52.565C189.054 54.687 189.342 57.322 189.341 59.4953C189.341 64.368 189.36 69.2399 189.362 74.1126C189.363 77.0658 189.347 80.0199 189.359 82.9739C189.369 85.3427 189.382 87.7861 190.367 89.8033C191.163 91.4332 192.602 92.1108 193.936 92.2583C194.546 92.3258 195.342 92.1108 195.917 92.4158C195.896 93.1547 196.026 95.2449 195.715 95.7998C190.54 95.7137 185.365 95.6795 180.189 95.6865C177.581 95.6896 174.669 95.2472 172.097 95.8674C172.034 94.8157 171.919 93.2929 172.134 92.2885C173.555 92.183 175.202 92.4189 176.496 91.4006C177.697 90.456 178.277 88.4675 178.442 86.6094C178.787 82.7364 178.571 78.6026 178.534 74.7063C178.378 58.1378 178.595 41.5265 178.63 24.9533C178.636 21.9434 178.628 18.9343 178.625 15.9243C178.623 14.1601 178.582 12.1181 177.775 10.6659C176.94 9.16093 175.629 8.58891 174.348 8.30329C173.616 8.13952 172.824 7.98894 172.085 8.10381C172.129 7.17243 172.156 6.20534 172.078 5.27862C172.11 5.2204 172.143 5.16219 172.175 5.10476Z" fill="#FDFDFE"/>
<path fill-rule="evenodd" clip-rule="evenodd" d="M229.949 63.0727C230.579 58.4577 231.044 54.0639 232.636 49.8354C237.296 37.4627 246.49 31.3241 256.131 33.6797C264.06 35.617 269.359 44.6701 269.423 56.0958C269.436 58.4693 269.679 61.8588 268.76 63.935C266.145 64.3634 263.374 64.0444 260.744 64.0382C254.214 64.0235 247.645 63.6129 241.123 64.195C241 66.2409 241.329 68.7277 241.645 70.7271C242.312 74.9571 243.576 79.0086 245.721 82.1544C249.447 87.6224 255.614 89.2461 260.608 86.7872C262.831 85.6921 264.833 84.0358 266.544 81.7298C267.234 80.8008 268.309 78.1696 269.205 77.8902C269.663 78.5515 270.902 79.4969 271.073 80.3638C270.292 82.4416 269.043 84.3494 267.913 86.0577C260.44 97.36 246.369 100.617 237.441 90.7192C231.58 84.2228 229.184 73.3668 229.949 63.0727ZM241.399 56.8572C241.339 57.5814 241.046 58.9234 241.324 59.5404C244.773 59.8446 248.299 59.6335 251.755 59.6397C253.235 59.6428 255.257 60.1147 256.642 59.2346C259.017 57.725 259.441 52.2616 259.474 49.1112C259.505 46.168 259.185 43.0223 257.826 40.676C255.228 36.1883 249.799 36.5406 246.817 39.9573C245.398 41.5833 244.284 43.6937 243.468 46.0035C242.247 49.4589 241.882 53.1107 241.399 56.8572Z" fill="#FEFEFE"/>
<path fill-rule="evenodd" clip-rule="evenodd" d="M277.29 63.4585C277.877 59.6088 278.096 55.8444 279.206 52.1492C282.304 41.8302 288.62 34.695 296.507 33.4159C304.305 32.1516 312.836 35.9469 315.753 47.2858C316.368 49.6763 316.762 52.2943 316.877 54.8385C317.003 57.6164 317.132 61.1324 316.306 63.727C315.88 64.1617 314.868 63.9273 314.348 63.9389C312.535 63.977 310.72 63.9692 308.907 63.963C302.099 63.9389 295.287 63.838 288.483 64.1826C288.172 66.7261 288.82 70.4105 289.332 72.8406C290.163 76.7874 291.625 80.5657 293.827 83.2869C300.767 91.8572 311.743 88.0781 316.54 77.5915C317.305 78.0812 318.194 79.2656 318.681 80.218C318.455 81.2014 317.762 81.986 317.32 82.7793C316.206 84.7794 315.081 86.6965 313.699 88.3404C306.873 96.4582 296.881 99.063 288.621 93.7587C280.466 88.5213 276.441 75.8125 277.29 63.4585ZM288.736 57.6366C288.682 58.287 288.67 58.9343 288.656 59.5886C292.225 59.6755 295.809 59.5692 299.38 59.556C300.77 59.5506 302.85 60.0434 304.152 59.2199C306.59 57.6793 306.988 51.8208 306.987 48.6107C306.986 45.8282 306.582 42.7267 305.259 40.5682C302.48 36.0339 296.953 36.7627 293.949 40.3206C292.564 41.9621 291.464 44.0003 290.687 46.3179C289.472 49.9449 289.159 53.7247 288.736 57.6366Z" fill="#FEFEFE"/>
<path fill-rule="evenodd" clip-rule="evenodd" d="M323.55 34.9563C324.101 34.3199 325.063 34.3253 325.742 34.0862C326.697 33.7502 327.677 33.099 328.552 32.4649C333 29.2376 336.436 22.9484 337.427 15.9188C338.341 15.8249 339.271 15.9654 340.185 15.9809C340.015 20.6239 340.152 25.3405 340.144 29.9944C340.141 31.1206 340.148 32.246 340.152 33.3714C340.153 33.6462 340.073 34.3121 340.213 34.5124C343.11 34.4324 346.014 34.5015 348.913 34.5077C349.835 34.51 351.593 33.9923 352.407 34.555C352.376 36.0026 352.536 37.603 352.366 39.0296C348.274 39.0498 344.167 39.2585 340.077 39.1638C339.63 48.0438 340.04 57.1815 340.039 66.0871C340.038 71.4549 339.489 77.5749 340.359 82.8318C341.822 91.6823 349.96 88.6025 352.75 83.0173C353.221 82.876 354.056 84.1326 354.538 84.4524C354.72 84.877 353.814 86.198 353.623 86.5829C352.488 88.8648 351.065 90.8316 349.461 92.4336C344.885 97.0051 336.434 98.7018 332.181 92.3692C329.129 87.8248 329.25 80.8107 329.241 74.929C329.224 63.1035 329.572 51.1795 329.23 39.3664C329.017 38.983 328.209 39.1817 327.873 39.1786C326.551 39.1654 324.747 39.548 323.489 38.9853C323.596 37.6721 323.574 36.2797 323.55 34.9563Z" fill="#FEFEFF"/>
</svg>
