<svg xmlns="http://www.w3.org/2000/svg"
shape-rendering="geometricPrecision"
width="4000" height="4000" viewBox="0 0 511 511"><rect width="100%" height="100%" fill="#031E36" />
  <metadata>null</metadata>

<path d="
M 23.878 310.995
C 27.282 310.698 30.821 311.14 34.238 311.184
C 40.324 311.262 46.413 311.202 52.499 311.219
C 55.166 311.226 57.834 311.247 60.502 311.254
C 61.529 311.256 62.986 310.994 63.906 311.466
C 69.726 322.587 74.361 334.433 79.455 345.905
C 86.439 361.63 93.625 377.267 100.658 392.966
C 101.008 393.118 101.343 392.12 101.485 391.828
C 102.029 390.708 102.483 389.547 102.979 388.404
C 105.099 383.517 107.347 378.686 109.504 373.814
C 115.659 359.907 122.135 346.148 128.34 332.264
C 131.515 325.16 134.447 317.804 138.041 310.907
C 141.012 310.325 144.476 310.777 147.501 310.792
C 153.958 310.824 160.416 311.031 166.869 311.053
C 169.292 311.061 171.712 311.03 174.135 311.021
C 175.116 311.018 176.597 310.788 177.454 311.288
C 177.498 312.898 177.7 314.804 177.388 316.375
C 172.068 316.491 165.183 316.545 162.43 322.037
C 161.088 324.715 161.319 328.316 161.325 331.227
C 161.337 336.153 161.297 341.079 161.295 346.006
C 161.29 360.672 161.299 375.339 161.299 390.006
C 161.299 394.281 161.307 398.557 161.313 402.832
C 161.317 406.031 161.2 409.375 162.201 412.456
C 164.192 418.584 170.687 419.09 176.198 419.133
C 176.639 420.433 176.354 422.173 176.324 423.532
C 175.026 423.935 173.092 423.543 171.729 423.539
C 168.489 423.529 165.248 423.538 162.007 423.539
C 153.008 423.541 144.009 423.549 135.01 423.608
C 130.855 423.636 126.342 423.135 122.232 423.722
C 122.302 422.115 122.347 420.486 122.371 418.878
C 127.841 418.537 134.013 418.744 137.137 413.309
C 138.994 410.077 139.191 405.912 139.251 402.275
C 139.327 397.684 139.287 393.093 139.289 388.501
C 139.296 374.217 139.304 359.931 139.445 345.647
C 139.488 341.265 139.519 336.87 139.64 332.49
C 139.697 330.445 140.253 327.775 139.829 325.79
C 139.555 325.681 139.098 326.802 138.981 327.048
C 138.387 328.299 137.892 329.589 137.316 330.847
C 134.619 336.734 131.853 342.59 129.153 348.477
C 121.08 366.076 113.531 383.901 105.507 401.518
C 103.325 406.31 101.142 411.103 98.974 415.901
C 97.799 418.503 96.817 421.409 95.377 423.865
C 93.721 424.057 91.55 423.798 89.893 423.581
C 83.593 407.019 75.699 390.909 68.38 374.77
C 66.093 369.726 63.366 364.68 61.466 359.481
C 58.72 351.967 54.795 344.759 51.617 337.41
C 50.582 335.015 49.571 332.618 48.569 330.212
C 48.23 329.397 47.92 328.557 47.571 327.75
C 47.377 327.301 47.132 326.022 46.892 326.449
C 46.586 326.992 46.91 327.696 46.884 328.32
C 46.821 329.874 46.901 331.437 46.881 332.993
C 46.807 338.826 46.875 344.663 46.901 350.496
C 46.967 365.449 47.003 380.4 47.027 395.353
C 47.037 401.364 45.863 409.734 49.586 414.907
C 52.448 418.883 58.645 418.883 63.055 418.907
C 63.52 420.361 62.665 422.154 63.103 423.606
C 60.349 423.961 57.227 423.507 54.436 423.507
C 47.46 423.505 40.482 423.501 33.506 423.603
C 30.3 423.65 26.93 423.36 23.749 423.798
C 23.876 422.256 23.991 420.448 23.814 418.91
C 29.078 418.52 34.881 418.761 37.594 413.228
C 38.982 410.397 39.105 406.844 39.177 403.748
C 39.287 399.002 39.24 394.251 39.243 389.504
C 39.25 374.171 39.239 358.837 39.25 343.504
C 39.253 339.254 39.331 335.005 39.333 330.756
C 39.334 327.936 39.515 324.958 38.455 322.29
C 36.241 316.716 29.085 316.243 23.936 316.35
C 23.37 315.657 23.569 311.85 23.878 310.995 Z"
opacity="1" fill="rgb(253,253,254)" fill-rule="evenodd" />
<path d="
M 42.499 294.128
C 43.269 289.465 42.675 284.223 42.671 279.5
C 42.663 271.4 42.918 263.24 42.65 255.149
C 44.327 255.136 46.583 254.765 48.174 255.233
C 48.916 269.725 57.741 284.628 71.928 289.294
C 84.715 293.501 104.052 291.866 107.891 276.263
C 108.329 274.481 108.44 272.606 108.383 270.777
C 108.026 259.183 97.22 253.606 87.896 249.509
C 72.742 242.851 54.5 238.224 47.153 221.718
C 46.106 219.365 45.288 216.877 44.858 214.334
C 44.355 211.354 44.09 208.325 44.414 205.308
C 44.832 201.407 45.713 197.566 47.464 194.028
C 55.501 177.78 74.645 173.92 91.071 176.62
C 95.321 177.319 99.502 178.767 103.382 180.63
C 105.73 181.757 109.02 183.534 111.708 182.802
C 114.241 182.111 115.413 178.94 115.93 176.668
C 117.278 176.535 118.804 176.8 120.153 176.933
C 120.942 189.426 120.273 202.177 120.366 214.696
C 118.967 214.611 117.544 214.661 116.143 214.685
C 115.745 214.692 115.11 214.91 114.88 214.58
C 113.948 200.729 103.778 186.929 90.355 183.169
C 78.722 179.91 63.114 183.302 61.221 197.27
C 59.258 211.755 73.823 218.154 85.107 222.282
C 99.643 227.6 117.452 233.675 123.995 249.123
C 125.211 251.993 125.94 255.021 126.355 258.103
C 126.811 261.49 126.777 265.057 126.238 268.433
C 125.568 272.635 123.915 276.603 121.747 280.247
C 112.435 295.901 91.68 299.088 75.086 297.06
C 69.933 296.43 64.876 295.049 59.961 293.425
C 57.554 292.629 53.926 291.198 51.422 292.266
C 48.898 293.343 48.741 295.723 47.287 297.59
C 45.648 297.438 44.062 297.447 42.425 297.452
C 42.411 296.341 42.435 295.238 42.499 294.128 Z"
opacity="1" fill="rgb(254,254,254)" fill-rule="evenodd" />
<path d="
M 138.284 179.427
C 145.57 177.803 152.942 176.487 160.241 174.887
C 163.32 174.212 166.64 173.814 169.634 172.85
C 169.938 174.095 169.603 175.705 169.589 176.997
C 169.555 180.165 169.601 183.337 169.607 186.505
C 169.627 196.672 169.664 206.84 169.721 217.007
C 169.741 220.507 169.768 224.007 169.709 227.507
C 169.69 228.635 170.142 230.819 169.452 231.666
C 169.357 231.887 170.487 230.659 170.683 230.333
C 171.303 229.303 172.128 228.392 172.947 227.52
C 175.641 224.651 178.651 222.095 182.058 220.113
C 191.633 214.541 206.754 212.576 215.672 220.484
C 222.104 226.19 222.879 235.208 222.888 243.236
C 222.899 252.823 222.889 262.41 222.896 271.997
C 222.899 277.155 221.605 284.577 224.89 288.965
C 226.343 290.906 228.969 291.558 231.272 291.689
C 232.161 291.74 233.626 291.454 234.417 291.88
C 234.395 292.893 234.225 293.994 234.312 294.999
C 234.334 295.259 234.629 295.968 234.395 296.181
C 220.038 296.116 205.714 295.832 191.357 296.218
C 191.43 294.815 191.495 293.378 191.496 291.974
C 195.166 290.956 199.003 292.063 201.301 288.124
C 203.86 283.737 202.733 276.852 202.733 271.999
C 202.733 268.666 202.717 265.333 202.711 262
C 202.706 259.499 202.706 256.999 202.708 254.499
C 202.717 245.886 205.064 232.176 194.936 228.124
C 193.65 227.61 192.194 227.303 190.82 227.161
C 183.71 226.427 177.741 229.545 173.312 234.947
C 172.078 236.453 170.342 238.645 169.909 240.575
C 169.295 243.309 169.825 246.704 169.824 249.504
C 169.823 255.782 169.858 262.059 169.861 268.337
C 169.863 272.142 169.834 275.948 169.856 279.754
C 169.874 282.806 169.898 285.954 171.708 288.553
C 173.171 290.653 175.814 291.526 178.266 291.716
C 179.387 291.803 180.849 291.526 181.906 291.919
C 181.866 292.871 182.105 295.564 181.535 296.279
C 172.026 296.168 162.518 296.124 153.008 296.133
C 148.217 296.137 142.866 295.567 138.141 296.366
C 138.024 295.011 137.814 293.049 138.208 291.755
C 140.819 291.619 143.845 291.923 146.223 290.611
C 148.429 289.394 149.495 286.832 149.799 284.438
C 150.433 279.448 150.035 274.122 149.968 269.102
C 149.681 247.755 150.08 226.353 150.143 205
C 150.154 201.122 150.14 197.245 150.134 193.367
C 150.13 191.094 150.055 188.463 148.573 186.592
C 147.038 184.653 144.63 183.916 142.277 183.548
C 140.931 183.337 139.477 183.143 138.118 183.291
C 138.2 182.091 138.249 180.845 138.106 179.651
C 138.165 179.576 138.225 179.501 138.284 179.427 Z"
opacity="1" fill="rgb(253,253,254)" fill-rule="evenodd" />
<path d="
M 185.449 403.609
C 185.941 401.468 186.389 399.486 187.396 397.501
C 191.043 390.318 198.616 386.81 205.772 384.031
C 214.644 380.587 223.903 378.204 232.755 374.783
C 232.935 372.212 232.799 369.581 232.792 367.002
C 232.78 362.383 232.993 357.533 230.221 353.573
C 225.102 346.262 210.168 347.418 205.172 354.303
C 204.797 354.819 204.463 355.392 204.236 355.991
C 202.74 359.946 206.62 360.88 208.325 363.669
C 210.134 366.626 208.631 370.864 206.36 373.089
C 200.796 378.54 190.603 375.388 188.703 367.987
C 186.283 358.561 193.513 351.298 201.326 347.572
C 210.636 343.133 221.722 342.622 231.773 344.319
C 237.444 345.277 243.08 347.317 247.273 351.416
C 253.038 357.052 253.24 365.142 253.261 372.657
C 253.284 380.939 253.232 389.221 253.227 397.504
C 253.225 401.82 252.834 406.384 253.472 410.663
C 253.974 414.031 257.328 417.071 260.855 415.476
C 262.668 414.655 264.076 412.469 265.073 410.823
C 265.804 410.859 266.377 411.828 266.747 412.414
C 268.419 415.061 265.613 417.351 263.659 419.01
C 256.378 425.193 241.646 428.589 235.225 419.424
C 234.016 417.698 233.505 415.571 233.021 413.553
C 225.933 420.454 217.746 425.006 207.595 425.145
C 197.165 425.289 187.459 420.701 185.606 409.637
C 185.273 407.647 185.163 405.613 185.449 403.609 Z
M 206.375 399.579
C 206.047 401.273 206.028 403.129 206.343 404.827
C 206.733 406.931 207.466 408.872 208.775 410.587
C 214.959 418.696 228.853 414.388 232.709 406.161
C 233.273 404.279 232.928 401.956 232.934 400.005
C 232.949 395.671 232.95 391.336 232.938 387.002
C 232.934 385.523 232.952 384.045 232.925 382.568
C 232.918 382.137 233.176 381.303 232.545 381.148
C 232.003 381.016 230.819 381.55 230.308 381.733
C 228.423 382.409 226.53 383.048 224.675 383.805
C 216.927 386.967 208.493 390.692 206.375 399.579 Z"
opacity="1" fill="rgb(253,253,254)" fill-rule="evenodd" />
<path d="
M 191.332 60.041
C 192.367 58.199 194.575 58.357 196.431 58.069
C 200.748 57.399 205.03 56.511 209.344 55.813
C 224.679 53.334 239.99 50.705 255.328 48.24
C 259.259 47.608 263.23 47.117 267.124 46.28
C 268.544 45.974 270.675 45.061 272.062 45.776
C 274.092 46.822 273.464 49.141 273.433 50.99
C 273.383 53.989 273.423 56.993 273.444 59.992
C 273.453 61.328 273.241 63.018 273.908 64.199
C 284.897 63.708 296.001 64.021 307.001 64.034
C 309.406 64.037 311.808 64.074 314.21 63.984
C 315.792 63.925 317.286 63.795 318.348 65.155
C 319.012 67.088 318.435 69.769 318.424 71.806
C 318.395 76.868 318.412 81.932 318.407 86.994
C 318.39 103.661 318.361 120.328 318.383 136.995
C 318.39 142.497 318.355 147.998 318.334 153.5
C 318.328 155.127 318.956 158.38 317.622 159.602
C 316.742 160.408 315.103 160.26 314.007 160.255
C 311.34 160.243 308.673 160.239 306.006 160.24
C 295.146 160.246 284.165 159.752 273.321 160.234
C 273.37 163.818 273.356 167.409 273.38 170.996
C 273.388 172.313 273.6 174.219 272.248 174.997
C 270.844 175.804 268.755 175.116 267.282 174.871
C 263.106 174.176 258.9 173.656 254.736 172.888
C 239.626 170.103 224.309 168.19 209.11 165.971
C 204.99 165.369 200.888 164.677 196.758 164.136
C 194.805 163.88 192.487 163.897 191.305 162.037
C 190.282 157.037 191.117 151.1 191.113 145.996
C 191.105 135.163 191.105 124.33 191.131 113.497
C 191.16 101.498 191.141 89.498 191.158 77.499
C 191.164 73.86 191.208 70.22 191.179 66.581
C 191.161 64.441 190.921 62.151 191.332 60.041 Z
M 199.67 65.705
C 199.324 85.125 199.707 104.58 199.674 124.005
C 199.662 131.004 199.628 138.002 199.608 145.001
C 199.597 148.625 199.199 152.522 199.679 156.11
C 211.001 158.334 222.496 159.738 233.886 161.58
C 240.601 162.666 247.334 163.61 254.061 164.614
C 257.471 165.123 260.956 165.992 264.374 166.308
C 264.094 163.59 264.374 160.739 264.377 158.007
C 264.385 152.342 264.396 146.676 264.396 141.01
C 264.396 121.844 264.413 102.677 264.4 83.511
C 264.394 74.096 265.157 64.336 264.362 54.96
C 250.355 56.62 236.421 59.199 222.503 61.487
C 216.94 62.401 211.304 63.249 205.793 64.434
C 203.758 64.872 201.634 64.986 199.67 65.705 Z
M 273.485 73.587
C 273.204 76.555 273.377 79.612 273.415 82.591
C 273.428 83.681 273.096 85.325 273.564 86.308
C 277.383 85.983 281.262 86.375 285.091 86.314
C 285.173 81.672 284.765 76.883 285.181 72.264
C 282.469 72.158 279.719 72.281 277.004 72.316
C 275.966 72.33 274.479 72.081 273.558 72.552
C 273.541 73.353 273.581 73.009 273.485 73.587 Z
M 273.342 94.288
C 273.33 98.951 272.989 103.809 273.48 108.446
C 277.161 108.079 281.18 108.179 284.869 108.425
C 284.759 103.717 285.184 99.006 285.078 94.298
C 281.329 93.768 277.13 94.237 273.342 94.288 Z
M 273.458 116.827
C 273.372 121.288 273.191 125.807 273.538 130.259
C 275.607 130.65 277.902 130.29 280.006 130.326
C 281.509 130.353 283.311 130.679 284.78 130.376
C 284.505 125.912 284.514 121.059 284.79 116.595
C 281.054 116.881 277.204 116.756 273.458 116.827 Z
M 273.467 139.59
C 273.134 143.62 273.021 148.198 273.585 152.206
C 277.309 152.405 281.083 152.243 284.81 152.266
C 284.245 149.079 284.756 145.244 284.774 141.993
C 284.781 140.861 285.067 139.316 284.721 138.243
C 281.055 138.51 277.148 137.892 273.534 138.517
C 273.519 139.343 273.555 138.987 273.467 139.59 Z
M 293.51 73.587
C 293.59 77.812 293.056 82.16 293.615 86.354
C 298.925 86.189 304.466 86.858 309.737 86.335
C 309.408 81.717 310.157 76.982 309.732 72.386
C 304.601 72.648 299.274 71.883 294.18 72.559
C 293.462 73.268 293.597 72.882 293.51 73.587 Z
M 293.457 95.595
C 293.218 99.602 293.061 104.141 293.572 108.129
C 294.588 108.786 296.773 108.373 298.006 108.373
C 301.841 108.376 305.693 108.276 309.524 108.403
C 309.936 108.296 309.674 105.49 309.676 104.997
C 309.689 101.426 309.621 97.85 309.734 94.28
C 305.992 94.246 302.248 94.282 298.506 94.278
C 297.002 94.276 294.835 93.872 293.482 94.545
C 293.516 95.352 293.544 95.003 293.457 95.595 Z
M 293.452 117.596
C 293.088 121.724 293.267 126.119 293.542 130.248
C 298.624 131.093 304.524 130.273 309.681 130.218
C 309.312 125.781 309.65 121.103 309.731 116.649
C 308.245 116.145 306.081 116.536 304.507 116.538
C 301.026 116.54 297.546 116.526 294.067 116.571
C 293.407 117.237 293.555 116.867 293.452 117.596 Z
M 293.403 139.06
C 293.121 143.284 292.98 148.013 293.588 152.208
C 298.939 152.417 304.319 152.014 309.669 152.258
C 309.354 147.639 309.787 142.945 309.631 138.317
C 308.091 137.952 306.102 138.281 304.507 138.285
C 300.883 138.294 297.263 138.274 293.645 138.453
C 293.565 138.656 293.484 138.858 293.403 139.06 Z"
opacity="1" fill="rgb(253,253,254)" fill-rule="evenodd" />
<path d="
M 214.795 128.187
C 217.238 124.995 219.215 121.37 221.368 117.975
C 222.798 115.72 224.921 113.336 225.831 110.83
C 225.997 109.317 223.904 106.935 223.114 105.686
C 220.508 101.564 217.408 97.477 215.102 93.21
C 218.176 93.563 221.44 93.279 224.542 93.334
C 226.794 97.062 228.912 100.936 230.955 104.769
C 231.706 104.413 232.234 102.327 232.659 101.59
C 234.227 98.876 235.627 95.863 237.488 93.348
C 240.403 93.04 243.406 93.386 246.335 93.305
C 246.631 93.46 245.904 94.201 245.789 94.353
C 245.096 95.264 244.539 96.287 243.923 97.251
C 241.914 100.391 240.052 103.629 238.093 106.801
C 237.365 107.979 235.831 109.621 235.733 111.013
C 238.213 115.205 240.786 119.4 243.407 123.514
C 244.182 124.731 244.976 125.945 245.812 127.122
C 246.093 127.517 246.83 128.062 246.953 128.511
C 244.681 128.51 242.376 128.486 240.1 128.401
C 239.227 128.368 238.102 128.518 237.289 128.201
C 235.634 125.709 234.22 123.043 232.613 120.515
C 232.038 119.609 231.499 118.14 230.547 117.623
C 228.757 120.183 227.161 122.901 225.472 125.531
C 224.929 126.377 224.38 127.905 223.441 128.344
C 220.538 128.396 217.556 128.651 214.68 128.616
C 214.718 128.473 214.756 128.33 214.795 128.187 Z"
opacity="1" fill="rgb(252,252,252)" fill-rule="evenodd" />
<path d="
M 244.431 254.112
C 245.589 248.166 246.443 242.505 249.369 237.057
C 257.931 221.116 274.822 213.207 292.537 216.242
C 307.104 218.738 316.84 230.402 316.958 245.123
C 316.982 248.181 317.429 252.548 315.74 255.223
C 310.936 255.775 305.844 255.364 301.011 255.356
C 289.015 255.337 276.945 254.808 264.962 255.558
C 264.736 258.194 265.341 261.398 265.921 263.974
C 267.147 269.424 269.469 274.644 273.409 278.697
C 280.256 285.742 291.587 287.834 300.762 284.666
C 304.847 283.255 308.524 281.121 311.669 278.15
C 312.936 276.953 314.912 273.563 316.557 273.203
C 317.399 274.055 319.675 275.273 319.989 276.39
C 318.555 279.067 316.259 281.525 314.184 283.726
C 300.453 298.288 274.6 302.484 258.196 289.732
C 247.429 281.362 243.027 267.375 244.431 254.112 Z
M 265.469 246.104
C 265.358 247.037 264.821 248.766 265.332 249.561
C 271.668 249.953 278.147 249.681 284.497 249.689
C 287.216 249.693 290.93 250.301 293.475 249.167
C 297.838 247.222 298.618 240.183 298.679 236.124
C 298.736 232.332 298.147 228.279 295.651 225.256
C 290.878 219.474 280.902 219.928 275.423 224.33
C 272.816 226.425 270.77 229.144 269.27 232.12
C 267.027 236.572 266.356 241.277 265.469 246.104 Z"
opacity="1" fill="rgb(254,254,254)" fill-rule="evenodd" />
<path d="
M 270.933 444.087
C 271.548 442.512 272.003 440.935 272.95 439.5
C 276.079 434.759 280.945 432.52 285.924 430.419
C 283.391 428.834 280.503 428.629 278.21 426.391
C 271.873 420.208 273.087 410.419 278.87 404.352
C 280.791 402.336 283.094 400.561 285.548 399.25
C 286.366 398.812 288.953 397.993 289.389 397.26
C 288.053 396.165 286.224 395.476 284.781 394.464
C 282.062 392.556 279.674 389.915 278.078 386.991
C 269.753 371.741 277.672 352.464 293.449 346.229
C 300.242 343.545 308.029 342.828 315.227 344.052
C 318.35 344.583 321.381 346.024 324.492 346.387
C 325.811 345.053 326.636 343.004 327.668 341.436
C 330.295 337.442 333.657 333.141 338.156 331.213
C 344.215 328.618 353.281 329.872 354.339 337.679
C 354.487 338.772 354.44 339.914 354.167 340.984
C 352.815 346.277 346.393 348.672 341.867 345.545
C 339.471 343.889 338.435 340.825 338.107 338.058
C 334.495 340.011 331.421 344.486 329.486 348.016
C 330.687 349.404 332.711 350.371 334.125 351.613
C 337.247 354.355 339.872 357.744 341.502 361.58
C 345.867 371.852 343.284 385.425 334.656 392.7
C 329.622 396.944 323.665 399.002 317.314 400.355
C 312.548 401.371 307.538 401.552 302.699 401.022
C 300.34 400.764 296.86 399.281 294.564 400.058
C 290.804 401.331 285.971 404.882 286.687 409.301
C 287.173 412.296 289.65 413.464 292.341 413.928
C 296.654 414.671 301.142 414.564 305.505 414.585
C 308.339 414.599 311.173 414.626 314.007 414.654
C 326.117 414.775 340.866 413.896 348.734 425.019
C 349.922 426.699 350.785 428.644 351.264 430.645
C 351.867 433.166 352.03 435.764 351.887 438.349
C 351.692 441.881 350.615 445.21 348.814 448.249
C 344.993 454.699 337.762 459.183 330.789 461.472
C 318.068 465.647 304.671 465.858 291.509 464.164
C 282.669 463.025 271.317 458.981 270.676 448.506
C 270.586 447.035 270.639 445.532 270.933 444.087 Z
M 282.997 445.111
C 282.734 452.493 288.781 456.512 295.165 458.229
C 305.328 460.962 318.929 460.296 328.539 455.868
C 333.703 453.489 338.557 449.461 338.614 443.314
C 338.682 436.004 331.189 434.448 325.366 433.738
C 317.929 432.832 310.321 432.938 302.838 432.791
C 299.583 432.726 295.572 431.792 292.427 432.781
C 287.047 434.472 283.196 439.536 282.997 445.111 Z
M 295.444 365.601
C 294.653 374.072 294.616 385.672 300.595 392.457
C 304.696 397.11 313.169 397.713 317.629 393.158
C 321.014 389.701 322.383 384.533 322.835 379.849
C 323.673 371.169 323.677 359.724 317.798 352.596
C 313.64 347.554 305.297 347.098 300.738 351.851
C 297.279 355.457 295.899 360.74 295.444 365.601 Z"
opacity="1" fill="rgb(254,253,254)" fill-rule="evenodd" />
<path d="
M 331.415 254.61
C 332.493 249.65 332.896 244.8 334.934 240.039
C 340.626 226.744 352.232 217.551 366.722 215.903
C 381.049 214.274 396.724 219.164 402.083 233.773
C 403.213 236.853 403.937 240.226 404.149 243.504
C 404.379 247.083 404.616 251.613 403.1 254.956
C 402.317 255.516 400.457 255.214 399.501 255.229
C 396.17 255.278 392.836 255.268 389.505 255.26
C 376.997 255.229 364.48 255.099 351.98 255.543
C 351.408 258.82 352.599 263.567 353.54 266.698
C 355.067 271.783 357.752 276.651 361.799 280.157
C 374.549 291.199 394.716 286.33 403.53 272.819
C 404.934 273.45 406.568 274.976 407.462 276.203
C 407.048 277.47 405.774 278.481 404.963 279.503
C 402.916 282.08 400.848 284.55 398.309 286.668
C 385.768 297.127 367.409 300.483 352.234 293.649
C 337.249 286.901 329.854 270.527 331.415 254.61 Z
M 352.445 247.109
C 352.346 247.947 352.323 248.781 352.298 249.624
C 358.854 249.736 365.439 249.599 372 249.582
C 374.554 249.575 378.377 250.21 380.769 249.149
C 385.248 247.164 385.979 239.616 385.977 235.48
C 385.976 231.895 385.234 227.899 382.803 225.118
C 377.696 219.276 367.541 220.215 362.023 224.799
C 359.477 226.914 357.456 229.54 356.029 232.526
C 353.797 237.199 353.222 242.069 352.445 247.109 Z"
opacity="1" fill="rgb(254,254,254)" fill-rule="evenodd" />
<path d="
M 360.876 419.297
C 364.34 418.363 368.408 419.574 370.754 416.13
C 373.377 412.278 372.465 406.288 372.46 401.9
C 372.447 391.799 372.403 381.698 372.42 371.598
C 372.427 367.567 373.445 361.9 371.67 358.166
C 369.72 354.063 365.406 354.501 361.692 353.661
C 361.609 352.746 361.552 351.849 361.528 350.931
C 363.392 349.781 366.446 349.684 368.597 349.156
C 374.031 347.821 379.444 346.339 384.925 345.2
C 386.758 344.819 388.589 344.454 390.422 344.081
C 390.942 343.976 391.861 343.588 392.306 343.916
C 393.067 362.558 392.359 381.34 392.425 399.997
C 392.444 405.406 390.643 416.035 397.208 418.426
C 399.353 419.208 402.013 419.239 404.269 419.127
C 404.176 420.585 404.54 422.15 404.277 423.588
C 394.336 423.987 384.245 423.549 374.294 423.444
C 371.169 423.412 368.037 423.499 364.911 423.55
C 363.634 423.572 362.112 423.902 360.871 423.683
C 360.869 422.222 360.898 420.758 360.876 419.297 Z"
opacity="1" fill="rgb(253,253,254)" fill-rule="evenodd" />
<path d="
M 362.644 321.464
C 366.305 320.178 370.094 319.333 373.622 317.664
C 374.861 317.077 376.407 316.66 377.38 315.66
C 379.152 312.548 380.054 307.62 380.756 304.103
C 382.237 304.211 382.439 305.928 382.854 307.22
C 383.727 309.946 384.428 313.999 386.425 316.148
C 387.49 317.294 389.372 317.555 390.792 318.032
C 393.75 319.025 397.183 319.689 399.962 321.078
C 400.156 322.376 397.854 322.517 396.881 322.83
C 393.632 323.874 388.85 324.579 386.292 326.973
C 383.892 329.219 383.459 334.665 382.621 337.709
C 382.44 338.365 382.137 340.976 381.491 341.16
C 380.552 340.976 380.15 338.347 379.921 337.49
C 379.293 335.144 378.772 332.779 378.12 330.437
C 377.782 329.221 377.634 327.817 376.656 326.918
C 374.24 324.699 369.325 323.909 366.239 323.118
C 365.271 322.871 362.762 322.572 362.644 321.464 Z"
opacity="1" fill="rgb(253,253,254)" fill-rule="evenodd" />
<path d="
M 412.953 383.115
C 414.144 377.789 414.707 372.625 416.965 367.544
C 421.42 357.522 429.663 349.535 440.006 345.784
C 455.066 340.322 480.8 343.184 482.698 363.065
C 483.315 369.529 480.554 375.615 474.194 377.929
C 466.92 380.576 458.308 374.992 459.617 366.906
C 460.152 363.606 462.422 361.452 465.211 359.864
C 466.401 359.186 468.722 358.68 469.363 357.406
C 470.009 352.219 464.517 349.641 460.22 348.956
C 452.254 347.687 444.806 351.984 440.558 358.554
C 438.08 362.387 436.76 366.893 435.984 371.355
C 433.482 385.75 435.776 406.132 451.834 411.577
C 454.147 412.361 456.541 412.722 458.976 412.808
C 466.237 413.065 473.393 410.271 478.687 405.312
C 480.498 403.615 481.929 400.53 483.919 399.21
C 485.22 400.078 486.49 400.999 487.81 401.832
C 487.945 402.414 487.241 403.085 486.946 403.535
C 485.755 405.355 484.564 407.151 483.177 408.832
C 477.497 415.72 469.788 421.02 461.251 423.647
C 449.032 427.407 434.39 424.514 424.801 416.066
C 415.951 408.268 411.536 394.694 412.953 383.115 Z"
opacity="1" fill="rgb(254,253,255)" fill-rule="evenodd" />
<path d="
M 416.408 217.893
C 417.42 217.073 419.187 217.08 420.435 216.772
C 422.189 216.339 423.99 215.5 425.597 214.683
C 433.771 210.525 440.083 202.422 441.904 193.365
C 443.583 193.244 445.292 193.425 446.972 193.445
C 446.659 199.427 446.911 205.504 446.895 211.5
C 446.891 212.951 446.903 214.401 446.91 215.851
C 446.912 216.205 446.765 217.063 447.022 217.321
C 452.346 217.218 457.681 217.307 463.007 217.315
C 464.702 217.318 467.932 216.651 469.427 217.376
C 469.369 219.241 469.663 221.303 469.351 223.141
C 461.834 223.167 454.287 223.436 446.773 223.314
C 445.951 234.755 446.705 246.528 446.703 258.002
C 446.701 264.918 445.693 272.803 447.29 279.576
C 449.979 290.979 464.931 287.011 470.057 279.815
C 470.923 279.633 472.457 281.252 473.342 281.664
C 473.677 282.211 472.012 283.913 471.661 284.409
C 469.576 287.349 466.962 289.883 464.014 291.947
C 455.607 297.837 440.08 300.023 432.265 291.864
C 426.657 286.009 426.881 276.972 426.864 269.394
C 426.832 254.158 427.471 238.795 426.843 223.575
C 426.452 223.081 424.968 223.337 424.351 223.333
C 421.921 223.316 418.607 223.809 416.295 223.084
C 416.492 221.392 416.451 219.598 416.408 217.893 Z"
opacity="1" fill="rgb(254,254,255)" fill-rule="evenodd" />

</svg>